<svg width="40" height="40" viewBox="0 0 40 40" fill="none" xmlns="http://www.w3.org/2000/svg">
<path d="M19.5319 40.0001C16.9543 40.0019 14.4028 39.4841 12.0299 38.4776C9.65688 37.4711 7.51117 35.9966 5.72095 34.1421C2.05172 30.3487 0.000488281 25.2777 0.000488281 20.0001C0.000488281 14.7225 2.05172 9.65147 5.72095 5.85808C7.51234 4.00513 9.65828 2.5316 12.031 1.52523C14.4037 0.518867 16.9546 0.000244141 19.5319 0.000244141C22.1093 0.000244141 24.6602 0.518867 27.0329 1.52523C29.4056 2.5316 31.5516 4.00513 33.3429 5.85808C37.0122 9.65147 39.0634 14.7225 39.0634 20.0001C39.0634 25.2777 37.0122 30.3487 33.3429 34.1421C31.5528 35.9966 29.4071 37.4712 27.0341 38.4777C24.6611 39.4842 22.1096 40.002 19.5319 40.0001V40.0001ZM23.278 29.2341V32.2341C23.506 32.2811 23.7381 32.3049 23.971 32.3051C24.6323 32.3208 25.2916 32.2248 25.9209 32.0211C26.4469 31.834 26.9214 31.5257 27.306 31.1211C27.7357 30.655 28.09 30.1246 28.356 29.5491C28.665 28.9081 28.991 28.1401 29.325 27.2681L34.011 14.7411H30.4799L27.5949 23.0851L24.548 14.7411H20.6229L25.794 27.2411C25.6104 27.8065 25.346 28.3424 25.009 28.8321C24.8848 28.9862 24.726 29.1088 24.5454 29.1898C24.3648 29.2708 24.1676 29.3079 23.9699 29.2981C23.7371 29.2979 23.505 29.2741 23.277 29.2271L23.278 29.2341ZM11.09 25.5711C11.2573 25.8396 11.4542 26.0885 11.677 26.3131C11.9272 26.5665 12.2104 26.7852 12.519 26.9631C12.8597 27.1589 13.2244 27.3099 13.604 27.4121C14.0257 27.5244 14.4605 27.5799 14.897 27.5771C15.6405 27.5871 16.3784 27.4463 17.066 27.1631C17.7065 26.8912 18.2753 26.4746 18.728 25.9461C19.2176 25.3574 19.5793 24.6732 19.79 23.9371C20.0504 23.0226 20.1747 22.0748 20.159 21.1241V20.6511C20.2789 18.9914 19.8054 17.3431 18.823 16.0001C18.3266 15.4641 17.7168 15.0458 17.0381 14.7755C16.3594 14.5053 15.6289 14.39 14.9 14.4381C14.2008 14.4366 13.5121 14.6085 12.8957 14.9385C12.2793 15.2686 11.7544 15.7463 11.368 16.3291V10.7291H7.81295V27.2721H11.09V25.5721V25.5711ZM14.045 24.5791C13.69 24.5853 13.3377 24.5174 13.0105 24.3796C12.6833 24.2419 12.3885 24.0373 12.145 23.7791C11.5959 23.146 11.3183 22.3223 11.372 21.4861V20.3001C11.3437 19.9092 11.398 19.5167 11.5313 19.1482C11.6647 18.7797 11.8741 18.4434 12.146 18.1611C12.6611 17.6821 13.3427 17.4231 14.0459 17.4391C14.3845 17.4283 14.7211 17.4938 15.0308 17.631C15.3405 17.7681 15.6154 17.9732 15.835 18.2311C16.341 18.933 16.5823 19.7913 16.516 20.6541V21.1271C16.5797 22.0401 16.333 22.9479 15.816 23.7031C15.6101 23.9776 15.3425 24.1999 15.0349 24.3519C14.7272 24.5039 14.3881 24.5814 14.045 24.5781V24.5791Z" fill="#01BAB3"/>
</svg>
