<svg width="15" height="14" viewBox="0 0 15 14" fill="none" xmlns="http://www.w3.org/2000/svg">
<path fill-rule="evenodd" clip-rule="evenodd" d="M0.718323 6.64207C0.718323 10.2887 3.84129 13.245 7.69367 13.245C11.5461 13.245 14.669 10.2887 14.669 6.64207C14.669 2.9954 11.5461 0.0391846 7.69367 0.0391846C3.84129 0.0391846 0.718323 2.9954 0.718323 6.64207ZM2.11339 6.64207C2.11339 3.72473 4.61177 1.35976 7.69367 1.35976C10.7756 1.35976 13.274 3.72473 13.274 6.64207C13.274 9.55941 10.7756 11.9244 7.69367 11.9244C4.61177 11.9244 2.11339 9.55941 2.11339 6.64207ZM8.07564 7.34594C8.03658 7.58628 7.8315 7.79889 7.5483 7.79889H7.47018C7.18698 7.79889 6.98191 7.59553 6.94284 7.34594L6.84519 6.71734C6.79636 6.41229 6.98191 6.19968 7.2944 6.1627C8.144 6.06102 8.53462 5.81143 8.53462 5.35847V5.33998C8.53462 4.924 8.20259 4.68365 7.63619 4.68365C7.21628 4.68365 6.85495 4.80383 6.5034 5.05341C6.38621 5.13661 6.22996 5.20132 6.06395 5.20132C5.69286 5.20132 5.38036 4.90551 5.38036 4.55424C5.38036 4.3786 5.45849 4.19372 5.63427 4.05506C6.15184 3.64832 6.80613 3.38949 7.66549 3.38949C9.07172 3.38949 10.0287 4.07355 10.0287 5.303V5.32149C10.0287 6.49548 9.16938 6.97617 8.10494 7.17954L8.07564 7.34594ZM6.62058 9.21323V9.19474C6.62058 8.75103 6.98191 8.409 7.47018 8.409C7.95845 8.409 8.31978 8.75103 8.31978 9.19474V9.21323C8.31978 9.65695 7.95845 9.99898 7.47018 9.99898C6.98191 9.99898 6.62058 9.65695 6.62058 9.21323Z" fill="black" fill-opacity="0.6"/>
</svg>
